<?xml version="1.0" encoding="utf-8"?>
<!-- Generator: Adobe Illustrator 17.1.0, SVG Export Plug-In . SVG Version: 6.00 Build 0)  -->
<!DOCTYPE svg PUBLIC "-//W3C//DTD SVG 1.1//EN" "http://www.w3.org/Graphics/SVG/1.1/DTD/svg11.dtd">
<svg version="1.1" id="Layer_1" xmlns="http://www.w3.org/2000/svg" xmlns:xlink="http://www.w3.org/1999/xlink" x="0px" y="0px"
	 viewBox="47.2 39.4 299 267.3" xml:space="preserve">
<g id="Layer_2">
	<path fill="#FFFFFF" d="M153.6,217.3c0,0-81.8-10.9-105.6-86.2c0,0,51.2,21.8,111.6,6.9c0,0,8.1-11.3-23.8-46.3
		c0,0,95.5,8.1,99.6,58.4c0,0,41.9-56.8,90.7-18.1c0,0,6.4-4.8,0.4-19.3c0,0-30.2,8.9-40.3-17.7c0,0,21.4-5.2,30.6,2.8
		c0,0-1.6-6-8.5-14.1c0,0-15.3,17.7-43.1-2.8c0,0,7.7-16.1,28.6-9.7c0,0-44.7-5.2-53.2-22.2c0,0,19.3-24.6,58,16.5
		c0,0-0.8-18.5,4-25.4c0,0,31,6.9,12.1,36.3c0,0,6,7.3,8.9,13.7c0,0,1.2-20.6,10.9-25c0,0,26.2,12.5-1.6,41.9
		c0,0,15.7,48.8-3.2,61.3c0,0,4.4-18.9-0.4-22.2c0,0-33.5-0.4-45.1,43.1c0,0-4,89.9-121.3,77.8c0,0-30.2,25.8-30.2,39.1l-53.2-20.6
		C79.4,285.4,158,242.3,153.6,217.3z"/>
</g>
</svg>
